<svg width="462" height="74" viewBox="0 0 462 74" fill="none" xmlns="http://www.w3.org/2000/svg">
<path d="M192.104 43.7898H268.224L273.214 28.5098H170.624L156.024 73.2098H287.334L292.624 57.0198H187.784L192.104 43.7898Z" fill="white"/>
<path d="M293.954 73.2098H320.434L335.034 28.5098H308.564L293.954 73.2098Z" fill="white"/>
<path d="M458.184 2.85C454.924 0.949999 451.524 0 447.994 0H357.004H350.964H180.864H179.934H34.3238C29.9138 0 26.2238 1.14 23.2738 3.42C20.3738 5.55 18.4038 8.21 17.3538 11.4L0.893793 61.8C-0.546207 66.21 -0.246207 69.21 1.79379 70.81C3.92379 72.41 6.04379 73.2 8.16379 73.2H129.554C136.874 73.2 141.574 70.05 143.634 63.73L154.814 29.52H65.4538L60.7938 43.77H124.864L120.204 58.02H28.6038L42.5738 15.26H175.874L175.914 15.15H346.014L345.974 15.26H430.964C431.444 15.41 431.924 15.56 432.404 15.72C433.454 16.02 433.874 16.48 433.674 17.09L429.614 29.52H354.554L349.894 43.77H424.954L415.344 73.19H440.624L460.814 11.38C462.034 7.68 461.164 4.83 458.184 2.85Z" fill="white"/>
</svg>
